<svg width="18" height="11" viewBox="0 0 18 11" fill="none" xmlns="http://www.w3.org/2000/svg">
<path fill-rule="evenodd" clip-rule="evenodd" d="M19 5.78436C19 5.93591 18.9285 6.08124 18.8013 6.1884C18.674 6.29556 18.5014 6.35576 18.3215 6.35576L2.31771 6.35576L6.58836 9.95095C6.71577 10.0582 6.78735 10.2038 6.78735 10.3555C6.78735 10.5072 6.71577 10.6528 6.58836 10.76C6.46095 10.8673 6.28815 10.9276 6.10797 10.9276C5.92778 10.9276 5.75498 10.8673 5.62757 10.76L0.199342 6.18891C0.136153 6.13583 0.0860202 6.07278 0.0518136 6.00336C0.0176071 5.93394 -5.25379e-07 5.85952 -5.22094e-07 5.78436C-5.18809e-07 5.70921 0.0176071 5.63479 0.0518137 5.56537C0.0860202 5.49595 0.136153 5.43289 0.199342 5.37982L5.62757 0.808681C5.75498 0.701389 5.92778 0.641113 6.10797 0.641113C6.28815 0.641113 6.46095 0.701389 6.58836 0.808681C6.71577 0.915973 6.78735 1.06149 6.78735 1.21323C6.78735 1.36496 6.71577 1.51048 6.58836 1.61777L2.31771 5.21297L18.3215 5.21297C18.5014 5.21297 18.674 5.27317 18.8013 5.38033C18.9285 5.48749 19 5.63282 19 5.78436V5.78436Z" fill="white"/>
</svg>
